<svg xmlns="http://www.w3.org/2000/svg" viewBox="0 0 507.96 74.68"><defs><style>.cls-1{fill:#fff;}</style></defs><g id="レイヤー_2" data-name="レイヤー 2"><g id="レイヤー_4" data-name="レイヤー 4"><path class="cls-1" d="M131.19,35.59l19.69-24.26a52.88,52.88,0,0,0,4.76-6c2.1-3.5,5-4.5,8.87-4.14,3.3.3,6.64.06,10.61.06-1,1.32-1.62,2.26-2.34,3.15-7.51,9.2-15,18.43-22.59,27.53-1.52,1.82-1.43,2.95-.06,4.76,8.4,11.17,16.68,22.42,25,33.65.58.79,1.1,1.62,2.06,3-5.54,0-10.56.09-15.57-.1-.81,0-1.73-1.2-2.35-2-6-8.13-12-16.24-17.79-24.5-1.7-2.42-2.38-1.86-4.22-.07-5.54,5.38-7.69,11.55-7,19.33.66,7.39.15,7.43-7.3,7.43-5.94,0-5.94,0-5.94-5.93,0-20.86.07-41.73-.09-62.6,0-3.18,1-4,3.89-3.7a36,36,0,0,0,6.65,0c2.33-.2,3,.58,3,2.94-.13,9.32-.06,18.64-.05,28v3.22Z"/><path class="cls-1" d="M235.22,51.58c3.64,5,7.89,9.05,13.95,9.77,3.6.43,7.67.37,11-.91,5.92-2.28,6.51-8.93,1.38-12.71-2.54-1.86-5.64-3-8.52-4.37-3.78-1.83-7.78-3.28-11.37-5.43-8.22-4.93-11.71-12.21-9.95-21s7.62-13.95,16-15.9c10.68-2.48,20.44-.35,28.85,7,1.53,1.34,1.95,2.41.43,4.07a52.12,52.12,0,0,0-4.29,5.51c-1.1,1.55-1.82,1.9-3.56.45-5-4.15-10.6-6.4-17.23-4.88-3.21.74-5.41,2.62-6,5.89s1,5.75,3.61,7.26c3.63,2.09,7.52,3.74,11.3,5.58,3.09,1.5,6.32,2.76,9.24,4.53,12.79,7.79,13.11,25.07.72,33.51-12.55,8.55-32.94,5.11-42.08-7-1.12-1.48-1.45-2.47,0-3.95C230.92,56.71,232.93,54.2,235.22,51.58Z"/><path class="cls-1" d="M57.13,3.93V14.42a1,1,0,0,1-1,1H37a1,1,0,0,0-1,1v56a1,1,0,0,1-1,1H22.2a1,1,0,0,1-1-1v-56a1,1,0,0,0-1-1H1a1,1,0,0,1-1-1V3.93a1,1,0,0,1,1-1H56.13A1,1,0,0,1,57.13,3.93Z"/><path class="cls-1" d="M493.88,2.19H506a2,2,0,0,1,1.76,2.95l-21.78,40.7a2,2,0,0,0-.23.94v24a2,2,0,0,1-2,2H473a2,2,0,0,1-2-2V46.8a2,2,0,0,0-.25-1L448.21,5.16a2,2,0,0,1,1.75-3h12.71a2,2,0,0,1,1.81,1.14L476.73,29a2,2,0,0,0,3.63,0l11.7-25.65A2,2,0,0,1,493.88,2.19Z"/><rect class="cls-1" x="349.97" y="1.17" width="31.43" height="29.39" rx="2"/><rect class="cls-1" x="349.97" y="43.34" width="31.43" height="29.39" rx="2"/><line class="cls-1" x1="130.31" y1="36.98" x2="159.15" y2="1.14"/></g></g></svg>